[Header]
FileType HTR
DataType HTRS
FileVersion 1
NumSegments 64
NumFrames 3
DataFrameRate 24
EulerRotationOrder ZYX
CalibrationUnits mm
RotationUnits Degrees
GlobalAxisofGravity Y
BoneLengthAxis Y
ScaleFactor 1.0
[SegmentNames&Hierarchy]
Hips	GLOBAL
Spine	Hips
Spine1	Spine
Spine2	Spine1
Neck	Spine2
Head	Neck
LeftEye	Head
RightEye	Head
LeftShoulder	Spine2
LeftArm	LeftShoulder
LeftForeArm	LeftArm
LeftHand	LeftForeArm
LeftHandThumb1	LeftHand
LeftHandThumb2	LeftHandThumb1
LeftHandThumb3	LeftHandThumb2
LeftHandThumb4	LeftHandThumb3
LeftHandIndex1	LeftHand
LeftHandIndex2	LeftHandIndex1
LeftHandIndex3	LeftHandIndex2
LeftHandIndex4	LeftHandIndex3
LeftHandMiddle1	LeftHand
LeftHandMiddle2	LeftHandMiddle1
LeftHandMiddle3	LeftHandMiddle2
LeftHandMiddle4	LeftHandMiddle3
LeftHandRing1	LeftHand
LeftHandRing2	LeftHandRing1
LeftHandRing3	LeftHandRing2
LeftHandRing4	LeftHandRing3
LeftHandPinky1	LeftHand
LeftHandPinky2	LeftHandPinky1
LeftHandPinky3	LeftHandPinky2
LeftHandPinky4	LeftHandPinky3
RightShoulder	Spine2
RightArm	RightShoulder
RightForeArm	RightArm
RightHand	RightForeArm
RightHandPinky1	RightHand
RightHandPinky2	RightHandPinky1
RightHandPinky3	RightHandPinky2
RightHandPinky4	RightHandPinky3
RightHandRing1	RightHand
RightHandRing2	RightHandRing1
RightHandRing3	RightHandRing2
RightHandRing4	RightHandRing3
RightHandMiddle1	RightHand
RightHandMiddle2	RightHandMiddle1
RightHandMiddle3	RightHandMiddle2
RightHandMiddle4	RightHandMiddle3
RightHandIndex1	RightHand
RightHandIndex2	RightHandIndex1
RightHandIndex3	RightHandIndex2
RightHandIndex4	RightHandIndex3
RightHandThumb1	RightHand
RightHandThumb2	RightHandThumb1
RightHandThumb3	RightHandThumb2
RightHandThumb4	RightHandThumb3
LeftUpLeg	Hips
LeftLeg	LeftUpLeg
LeftFoot	LeftLeg
LeftToeBase	LeftFoot
RightUpLeg	Hips
RightLeg	RightUpLeg
RightFoot	RightLeg
RightToeBase	RightFoot
[BasePosition]
Hips	0	0	0	0	0	0	1
Spine	0	0	0	0	0	0	1
Spine1	0	0	0	0	0	0	1
Spine2	0	0	0	0	0	0	1
Neck	0	0	0	0	0	0	1
Head	0	0	0	0	0	0	1
LeftEye	0	0	0	0	0	0	1
RightEye	0	0	0	0	0	0	1
LeftShoulder	0	0	0	0	0	0	1
LeftArm	0	0	0	0	0	0	1
LeftForeArm	0	0	0	0	0	0	1
LeftHand	0	0	0	0	0	0	1
LeftHandThumb1	0	0	0	0	0	0	1
LeftHandThumb2	0	0	0	0	0	0	1
LeftHandThumb3	0	0	0	0	0	0	1
LeftHandThumb4	0	0	0	0	0	0	1
LeftHandIndex1	0	0	0	0	0	0	1
LeftHandIndex2	0	0	0	0	0	0	1
LeftHandIndex3	0	0	0	0	0	0	1
LeftHandIndex4	0	0	0	0	0	0	1
LeftHandMiddle1	0	0	0	0	0	0	1
LeftHandMiddle2	0	0	0	0	0	0	1
LeftHandMiddle3	0	0	0	0	0	0	1
LeftHandMiddle4	0	0	0	0	0	0	1
LeftHandRing1	0	0	0	0	0	0	1
LeftHandRing2	0	0	0	0	0	0	1
LeftHandRing3	0	0	0	0	0	0	1
LeftHandRing4	0	0	0	0	0	0	1
LeftHandPinky1	0	0	0	0	0	0	1
LeftHandPinky2	0	0	0	0	0	0	1
LeftHandPinky3	0	0	0	0	0	0	1
LeftHandPinky4	0	0	0	0	0	0	1
RightShoulder	0	0	0	0	0	0	1
RightArm	0	0	0	0	0	0	1
RightForeArm	0	0	0	0	0	0	1
RightHand	0	0	0	0	0	0	1
RightHandPinky1	0	0	0	0	0	0	1
RightHandPinky2	0	0	0	0	0	0	1
RightHandPinky3	0	0	0	0	0	0	1
RightHandPinky4	0	0	0	0	0	0	1
RightHandRing1	0	0	0	0	0	0	1
RightHandRing2	0	0	0	0	0	0	1
RightHandRing3	0	0	0	0	0	0	1
RightHandRing4	0	0	0	0	0	0	1
RightHandMiddle1	0	0	0	0	0	0	1
RightHandMiddle2	0	0	0	0	0	0	1
RightHandMiddle3	0	0	0	0	0	0	1
RightHandMiddle4	0	0	0	0	0	0	1
RightHandIndex1	0	0	0	0	0	0	1
RightHandIndex2	0	0	0	0	0	0	1
RightHandIndex3	0	0	0	0	0	0	1
RightHandIndex4	0	0	0	0	0	0	1
RightHandThumb1	0	0	0	0	0	0	1
RightHandThumb2	0	0	0	0	0	0	1
RightHandThumb3	0	0	0	0	0	0	1
RightHandThumb4	0	0	0	0	0	0	1
LeftUpLeg	0	0	0	0	0	0	1
LeftLeg	0	0	0	0	0	0	1
LeftFoot	0	0	0	0	0	0	1
LeftToeBase	0	0	0	0	0	0	1
RightUpLeg	0	0	0	0	0	0	1
RightLeg	0	0	0	0	0	0	1
RightFoot	0	0	0	0	0	0	1
RightToeBase	0	0	0	0	0	0	1
[Hips]
30	116.2962036	880.3021851	-9.579815865	11.69183254	-3.502943039	1.45129621	1.0
31	102.5695953	875.4540405	-14.85667229	11.13793564	-6.341421604	0.9763817787	1.0
32	88.33427429	892.3297119	-14.04912472	9.430109978	-6.737339497	0.5449582934	1.0
[Spine]
30	0	101.8159943	1.315000057	5.495457172	2.024242878	-0.002660963684	1.0
31	0	101.8159943	1.315000057	5.802397728	0.6666535139	-0.2956722379	1.0
32	0	101.8159943	1.315000057	5.693569183	-0.8812215328	-0.6316105127	1.0
[Spine1]
30	0	100.8349991	-10.00800037	2.002012491	-0.1211789474	2.140278101	1.0
31	0	100.8349991	-10.00800037	2.003898382	-0.3906555474	2.397086859	1.0
32	0	100.8349991	-10.00800037	1.872510791	-0.6740704179	2.685836554	1.0
[Spine2]
30	0	91	-13.73399925	1.959982991	0.2193811834	2.117800474	1.0
31	0	91	-13.73399925	1.967673302	-0.03110921197	2.367060661	1.0
32	0	91	-13.73399925	1.844518781	-0.2934029996	2.645963669	1.0
[Neck]
30	0	166.7169952	-25.16200066	-7.045648098	-0.4926849306	-1.552356958	1.0
31	0	166.7169952	-25.16200066	-6.939232826	0.1702803671	-2.058085442	1.0
32	0	166.7169952	-25.16200066	-6.043391705	0.4940432608	-2.465998173	1.0
[Head]
30	0	96.17900085	16.84999847	-19.29323006	-1.472416878	-14.18615627	1.0
31	0	96.17900085	16.84999847	-18.99038124	1.324769139	-14.52233505	1.0
32	0	96.17900085	16.84999847	-16.68031883	2.788001776	-13.85126877	1.0
[LeftEye]
30	30.6760006	64.09500122	92.83599854	0	0	0	1.0
31	30.6760006	64.09500122	92.83599854	0	0	0	1.0
32	30.6760006	64.09500122	92.83599854	0	0	0	1.0
[RightEye]
30	-30.6760006	64.09500122	92.83499908	0	0	0	1.0
31	-30.6760006	64.09500122	92.83499908	0	0	0	1.0
32	-30.6760006	64.09500122	92.83499908	0	0	0	1.0
[LeftShoulder]
30	45.70400238	109.4599991	-26.28000069	4.123346329	-11.15032196	-4.943492413	1.0
31	45.70400238	109.4599991	-26.28000069	4.10607481	-10.51329422	-7.489795208	1.0
32	45.70400238	109.4599991	-26.28000069	4.180290699	-12.3016777	-8.552289009	1.0
[LeftArm]
30	105.923996	-5.24600029	-22.32099915	-30.05283165	-4.617515564	-79.19136047	1.0
31	105.923996	-5.24600029	-22.32099915	-25.64793396	-6.315369606	-77.11288452	1.0
32	105.923996	-5.24600029	-22.32099915	-19.52679634	-5.990772724	-74.59578705	1.0
[LeftForeArm]
30	278.414978	-0.0009999999311	0	6.915624454e-06	-7.221496582	-0.0002286929084	1.0
31	278.414978	-0.0009999999311	0	-6.368297363e-06	-6.77361536	-0.0001735945407	1.0
32	278.414978	-0.0009999999311	0	-1.337692311e-06	-6.986855507	-0.0002034065546	1.0
[LeftHand]
30	283.2879944	0	0	-27.05385971	-12.23857975	2.538112164	1.0
31	283.2879944	0	0	-22.49981308	-19.05912018	12.11583042	1.0
32	283.2879944	0	0	-20.31016159	-19.10477066	13.28175354	1.0
[LeftHandThumb1]
30	24.6609993	-15.75	26.8239994	18.24177933	-3.668646097	10.26541233	1.0
31	24.6609993	-15.75	26.8239994	17.98318481	-4.014885902	10.20140648	1.0
32	24.6609993	-15.75	26.8239994	18.06639671	-3.916376352	10.22626114	1.0
[LeftHandThumb2]
30	32.29800034	-18.64699936	18.64699936	-0.2660381496	33.25885773	-2.740475655	1.0
31	32.29800034	-18.64699936	18.64699936	-0.5864024162	32.45570374	-2.930150747	1.0
32	32.29800034	-18.64699936	18.64699936	-0.4902676344	32.69843292	-2.873605728	1.0
[LeftHandThumb3]
30	26.52600098	-15.31499958	15.31499958	2.140695572	9.509789467	0.02931079641	1.0
31	26.52600098	-15.31499958	15.31499958	2.052762747	9.189552307	-0.05099641532	1.0
32	26.52600098	-15.31499958	15.31499958	2.079277754	9.286307335	-0.02680194192	1.0
[LeftHandThumb4]
30	19.54599953	-11.28499985	11.28499985	0	0	0	1.0
31	19.54599953	-11.28499985	11.28499985	0	0	0	1.0
32	19.54599953	-11.28499985	11.28499985	0	0	0	1.0
[LeftHandIndex1]
30	91.09299469	-5.170999527	22.60099792	-3.343295336	7.018487453	-37.66973495	1.0
31	91.09299469	-5.170999527	22.60099792	-3.137016535	6.521645546	-35.92759705	1.0
32	91.09299469	-5.170999527	22.60099792	-3.193552017	6.666075706	-36.41796875	1.0
[LeftHandIndex2]
30	36.76399994	0	0	-2.675557375	4.943146229	-50.32146072	1.0
31	36.76399994	0	0	-2.525766373	4.84709549	-48.56625366	1.0
32	36.76399994	0	0	-2.567641497	4.874601841	-49.0603981	1.0
[LeftHandIndex3]
30	28.83100128	0	0	-1.355263591	3.474924088	-39.83133698	1.0
31	28.83100128	0	0	-1.24486351	3.338628054	-38.08227158	1.0
32	28.83100128	0	0	-1.275517583	3.377345324	-38.57465363	1.0
[LeftHandIndex4]
30	23.92700005	0	0	0	0	0	1.0
31	23.92700005	0	0	0	0	0	1.0
32	23.92700005	0	0	0	0	0	1.0
[LeftHandMiddle1]
30	95.33399963	0	0	-5.547055721	9.817737579	-45.99200439	1.0
31	95.33399963	0	0	-5.295433044	9.654123306	-44.21598816	1.0
32	95.33399963	0	0	-5.366243839	9.710064888	-44.71487045	1.0
[LeftHandMiddle2]
30	36.98199844	0	0	-3.946430445	5.418418407	-63.27380753	1.0
31	36.98199844	0	0	-3.777648926	5.362637043	-61.51313019	1.0
32	36.98199844	0	0	-3.824990749	5.378864765	-62.00882721	1.0
[LeftHandMiddle3]
30	29.50900078	0	0	-1.52880168	4.054714203	-41.94650269	1.0
31	29.50900078	0	0	-1.412023783	3.926144361	-40.19578171	1.0
32	29.50900078	0	0	-1.444504142	3.962702274	-40.68866348	1.0
[LeftHandMiddle4]
30	28.3390007	0	0	0	0	0	1.0
31	28.3390007	0	0	0	0	0	1.0
32	28.3390007	0	0	0	0	0	1.0
[LeftHandRing1]
30	91.04499817	-0.4390000105	-18.65100098	-7.207910061	11.54936218	-57.20934296	1.0
31	91.04499817	-0.4390000105	-18.65100098	-6.970650196	11.77583218	-55.43851471	1.0
32	91.04499817	-0.4390000105	-18.65100098	-7.038394928	11.72212219	-55.93980789	1.0
[LeftHandRing2]
30	31.54000092	0	0	-3.535663843	5.813077927	-70.15010834	1.0
31	31.54000092	0	0	-3.374816895	5.745360374	-68.38265991	1.0
32	31.54000092	0	0	-3.419904232	5.76493597	-68.88041687	1.0
[LeftHandRing3]
30	29.37700081	0	0	-1.487051249	4.464621544	-49.01980209	1.0
31	29.37700081	0	0	-1.369462252	4.336691856	-47.26856232	1.0
32	29.37700081	0	0	-1.402167797	4.373071194	-47.76155853	1.0
[LeftHandRing4]
30	26.47500038	0	0	0	0	0	1.0
31	26.47500038	0	0	0	0	0	1.0
32	26.47500038	0	0	0	0	0	1.0
[LeftHandPinky1]
30	80.77799988	-4.887000084	-38.06099701	-13.41298866	13.96872425	-67.64837646	1.0
31	80.77799988	-4.887000084	-38.06099701	-13.04352474	14.54627609	-65.92609406	1.0
32	80.77799988	-4.887000084	-38.06099701	-13.15459919	14.40138912	-66.41690063	1.0
[LeftHandPinky2]
30	36	0	0	-4.582070351	5.116733551	-75.49224091	1.0
31	36	0	0	-4.409594536	5.079368114	-73.72063446	1.0
32	36	0	0	-4.458065987	5.090432167	-74.2197113	1.0
[LeftHandPinky3]
30	21.14200211	0	0	-2.447670698	5.074600697	-50.27350616	1.0
31	21.14200211	0	0	-2.305164337	4.972568035	-48.51849365	1.0
32	21.14200211	0	0	-2.344965935	5.00173521	-49.01255417	1.0
[LeftHandPinky4]
30	19.75699997	0	0	0	0	0	1.0
31	19.75699997	0	0	0	0	0	1.0
32	19.75699997	0	0	0	0	0	1.0
[RightShoulder]
30	-45.70000076	109.4620056	-26.28000069	6.784194469	1.124371648	-5.267592907	1.0
31	-45.70000076	109.4620056	-26.28000069	5.131920338	5.657468796	-1.699410558	1.0
32	-45.70000076	109.4620056	-26.28000069	4.119355679	8.185846329	0.8734491467	1.0
[RightArm]
30	-105.9280014	-5.248000145	-22.32099915	-0.009962143376	20.83373451	74.54425812	1.0
31	-105.9280014	-5.248000145	-22.32099915	0.4535946846	21.55171013	69.78017426	1.0
32	-105.9280014	-5.248000145	-22.32099915	-0.9542051554	20.6974926	66.23597717	1.0
[RightForeArm]
30	-278.414978	0	0	2.355079005e-06	16.83187485	1.767958565e-05	1.0
31	-278.414978	0	0	-2.671180027e-06	19.94844246	-1.632085514e-05	1.0
32	-278.414978	0	0	-4.47627508e-06	24.14851189	1.753643687e-06	1.0
[RightHand]
30	-283.2879944	0	0.0009999999311	-11.31729507	6.940585136	6.506373882	1.0
31	-283.2879944	0	0.0009999999311	-7.679626465	8.461338043	10.2047205	1.0
32	-283.2879944	0	0.0009999999311	-6.831308842	8.493907928	11.83029366	1.0
[RightHandPinky1]
30	-80.76699829	-4.885000229	-38.06000137	-4.81101799	-17.54735756	34.3146019	1.0
31	-80.76699829	-4.885000229	-38.06000137	-5.282244205	-15.94276428	37.26465225	1.0
32	-80.76699829	-4.885000229	-38.06000137	-5.242186069	-16.05221367	37.03210831	1.0
[RightHandPinky2]
30	-36	0	0.0009999999311	-1.752291441	-3.640126467	43.05377197	1.0
31	-36	0	0.0009999999311	-1.971152782	-3.839221954	46.02098083	1.0
32	-36	0	0.0009999999311	-1.95430994	-3.824621201	45.79741669	1.0
[RightHandPinky3]
30	-21.14200211	0	0	-0.6543723941	0.2850785553	19.57540512	1.0
31	-21.14200211	0	0	-0.7814556956	0.0235971231	22.47344208	1.0
32	-21.14200211	0	0	-0.7714217305	0.04306516051	22.2551403	1.0
[RightHandPinky4]
30	-19.75699997	0	0	0	0	0	1.0
31	-19.75699997	0	0	0	0	0	1.0
32	-19.75699997	0	0	0	0	0	1.0
[RightHandRing1]
30	-91.03599548	-0.4390000105	-18.65100098	-2.710762978	-12.00674534	24.3471489	1.0
31	-91.03599548	-0.4390000105	-18.65100098	-3.067292213	-11.49017525	27.31890488	1.0
32	-91.03599548	-0.4390000105	-18.65100098	-3.039443731	-11.52370834	27.09258461	1.0
[RightHandRing2]
30	-31.54000092	0	0	-1.044876695	-3.851064444	37.62692261	1.0
31	-31.54000092	0	0	-1.218910933	-4.082421303	40.55474854	1.0
32	-31.54000092	0	0	-1.205384135	-4.065309048	40.33415604	1.0
[RightHandRing3]
30	-29.37700081	0	0	-0.09031362832	0.3393208683	15.26624393	1.0
31	-29.37700081	0	0	-0.1457537115	0.05606287345	18.16463661	1.0
32	-29.37700081	0	0	-0.1410788	0.07730131596	17.94631577	1.0
[RightHandRing4]
30	-26.47500038	0	0	0	0	0	1.0
31	-26.47500038	0	0	0	0	0	1.0
32	-26.47500038	0	0	0	0	0	1.0
[RightHandMiddle1]
30	-95.32500458	0	0	-1.212137461	-7.914488316	13.34024048	1.0
31	-95.32500458	0	0	-1.564470053	-8.783090591	16.22930527	1.0
32	-95.32500458	0	0	-1.537808299	-8.715625763	16.01268005	1.0
[RightHandMiddle2]
30	-36.98199844	0	0	-1.255227089	-3.628637552	30.8542366	1.0
31	-36.98199844	0	0	-1.450955033	-3.848995447	33.76939774	1.0
32	-36.98199844	0	0	-1.435818076	-3.832746506	33.54978561	1.0
[RightHandMiddle3]
30	-29.50900078	0	0	-0.184626624	-1.433996916	13.34832191	1.0
31	-29.50900078	0	0	-0.2637446523	-1.711485863	16.24917984	1.0
32	-29.50900078	0	0	-0.25730142	-1.690728664	16.03064156	1.0
[RightHandMiddle4]
30	-28.3390007	0	0.0009999999311	0	0	0	1.0
31	-28.3390007	0	0.0009999999311	0	0	0	1.0
32	-28.3390007	0	0.0009999999311	0	0	0	1.0
[RightHandIndex1]
30	-91.08300018	-5.167999744	22.60099792	-0.06948706508	-2.918519258	5.444784164	1.0
31	-91.08300018	-5.167999744	22.60099792	-0.3326003551	-4.907932281	8.176242828	1.0
32	-91.08300018	-5.167999744	22.60099792	-0.3130779564	-4.76086235	7.968255043	1.0
[RightHandIndex2]
30	-36.76399994	0	0	-0.5098595619	-2.53905344	18.0186367	1.0
31	-36.76399994	0	0	-0.6452130675	-2.801444292	20.92349243	1.0
32	-36.76399994	0	0	-0.6345537901	-2.781929255	20.70462608	1.0
[RightHandIndex3]
30	-28.83100128	0	0	-0.1827246249	0.09272561967	11.29576111	1.0
31	-28.83100128	0	0	-0.2470275164	-0.1915744692	14.19423389	1.0
32	-28.83100128	0	0	-0.2416840494	-0.1702703983	13.97589302	1.0
[RightHandIndex4]
30	-23.92700005	0	0	0	0	0	1.0
31	-23.92700005	0	0	0	0	0	1.0
32	-23.92700005	0	0	0	0	0	1.0
[RightHandThumb1]
30	-24.64799881	-15.72700024	26.82600021	17.23540878	5.152807236	-10.07181931	1.0
31	-24.64799881	-15.72700024	26.82600021	18.21989441	3.721673489	-10.26748085	1.0
32	-24.64799881	-15.72700024	26.82600021	18.12954903	3.810553074	-10.23513508	1.0
[RightHandThumb2]
30	-32.29800034	-18.64699936	18.64699936	-1.543005943	-29.9612236	3.476522923	1.0
31	-32.29800034	-18.64699936	18.64699936	-0.3057717681	-33.1607132	2.76554966	1.0
32	-32.29800034	-18.64699936	18.64699936	-0.4021848738	-32.92008591	2.822867393	1.0
[RightHandThumb3]
30	-26.52600098	-15.31399918	15.31399918	1.578795671	-7.338945866	1.100404382	1.0
31	-26.52600098	-15.31399918	15.31399918	1.906165123	-8.617988586	0.7924256325	1.0
32	-26.52600098	-15.31399918	15.31399918	1.881210804	-8.521660805	0.815941453	1.0
[RightHandThumb4]
30	-19.54599953	-11.28499985	11.28499985	0	0	0	1.0
31	-19.54599953	-11.28499985	11.28499985	0	0	0	1.0
32	-19.54599953	-11.28499985	11.28499985	0	0	0	1.0
[LeftUpLeg]
30	82.07800293	-67.51699829	-15.99599934	-53.01618576	6.04305172	-3.572026014	1.0
31	82.07800293	-67.51699829	-15.99599934	-52.75159073	7.531190872	-2.055409193	1.0
32	82.07800293	-67.51699829	-15.99599934	-48.46777725	8.848885536	-0.3184033334	1.0
[LeftLeg]
30	0	-443.7049866	2.845999956	65.08744049	1.921714425	8.534572601	1.0
31	0	-443.7049866	2.845999956	65.85697174	1.185846567	8.483811378	1.0
32	0	-443.7049866	2.845999956	62.03334808	1.868995786	8.57943058	1.0
[LeftFoot]
30	0	-444.2789917	-29.8219986	-22.73557854	11.15767956	-1.977043986	1.0
31	0	-444.2789917	-29.8219986	-23.37015533	10.95168018	-6.285541058	1.0
32	0	-444.2789917	-29.8219986	-21.86619186	9.320326805	-8.181412697	1.0
[LeftToeBase]
30	0	-87.28699493	107.1060028	-5.376408577	9.545807188e-06	2.092265049e-06	1.0
31	0	-87.28699493	107.1060028	-4.635676861	1.03897728e-05	-7.285517768e-06	1.0
32	0	-87.28699493	107.1060028	-3.900332928	-2.770302672e-06	5.324780432e-06	1.0
[RightUpLeg]
30	-82.07800293	-67.51699829	-15.99599934	-47.80767441	1.091413379	-3.395908594	1.0
31	-82.07800293	-67.51699829	-15.99599934	-47.78676605	1.840928674	-2.142690897	1.0
32	-82.07800293	-67.51699829	-15.99599934	-43.73899078	-0.03777072206	-0.8135829568	1.0
[RightLeg]
30	0	-443.7049866	2.861999989	69.49645233	-2.37536025	-3.880500555	1.0
31	0	-443.7049866	2.861999989	69.86700439	-2.792985201	-3.2956388	1.0
32	0	-443.7049866	2.861999989	66.02583313	-3.785098791	-2.581693888	1.0
[RightFoot]
30	0	-444.2770081	-29.83799934	-23.77550697	1.471068621	3.087397337	1.0
31	0	-444.2770081	-29.83799934	-26.12447357	1.327495694	0.03861562163	1.0
32	0	-444.2770081	-29.83799934	-24.64369392	3.241822004	-1.873466134	1.0
[RightToeBase]
30	0	-87.28699493	107.1060028	-10.74056911	2.96248686e-06	1.023212576e-06	1.0
31	0	-87.28699493	107.1060028	-8.109009743	1.277612e-06	-2.910096555e-07	1.0
32	0	-87.28699493	107.1060028	-8.254156113	-1.211215931e-06	-3.12190565e-07	1.0
[EndOfFile]
